<svg width="55" height="60" viewBox="0 0 55 60" fill="none" xmlns="http://www.w3.org/2000/svg">
<path fill-rule="evenodd" clip-rule="evenodd" d="M27.5 10C17.825 10 10 16.26 10 24C10 34.5 27.5 50 27.5 50C27.5 50 45 34.5 45 24C45 16.26 37.175 10 27.5 10ZM14.9999 24C14.9999 18.48 20.5999 14 27.4999 14C34.3999 14 39.9999 18.48 39.9999 24C39.9999 29.76 32.7999 38.38 27.4999 43.76C22.2999 38.42 14.9999 29.7 14.9999 24ZM21.2501 24C21.2501 21.2386 24.0483 19 27.5001 19C29.733 19 31.7963 19.953 32.9127 21.5C34.0292 23.047 34.0292 24.953 32.9127 26.5C31.7963 28.047 29.733 29 27.5001 29C24.0483 29 21.2501 26.7614 21.2501 24Z" fill="white"/>
</svg>
